<svg xmlns="http://www.w3.org/2000/svg" viewBox="0 0 128 128"><path fill="#EFEFEF" d="M-1.422-1.422h130.844v130.844H-1.422z"/><path d="M109.5 129V-1m-91 130V-1m18 130V-1m19 130V-1m17 130V-1m19 130V-1M-1 109.5h130m-130-91h130m-130 18h130m-130 18h130m-130 18h130m-130 19h130" stroke="#E0E1E2" stroke-miterlimit="10" fill="none"/><path fill="#FFBE2A" d="M100.204 88.136l-60.34-60.34c-1.11-1.11-2.912-1.11-4.023 0l-8.044 8.045c-1.11 1.112-1.11 2.913 0 4.024l60.34 60.34c1.11 1.11 2.912 1.11 4.023 0l8.044-8.045c1.11-1.112 1.11-2.913 0-4.024zM35.34 39.36c-1.112-1.11-1.112-2.91 0-4.022 1.11-1.11 2.91-1.11 4.022 0s1.11 2.912 0 4.023c-1.112 1.112-2.913 1.112-4.023 0z"/><g opacity=".12"><linearGradient id="a" gradientUnits="userSpaceOnUse" x1="64" y1="101.037" x2="64" y2="26.963"><stop offset="0" stop-color="#fff" stop-opacity="0"/><stop offset="1" stop-color="#fff"/></linearGradient><path fill="url(#a)" d="M100.204 88.136l-60.34-60.34c-1.11-1.11-2.912-1.11-4.023 0l-8.044 8.045c-1.11 1.112-1.11 2.913 0 4.024l60.34 60.34c1.11 1.11 2.912 1.11 4.023 0l8.044-8.045c1.11-1.112 1.11-2.913 0-4.024zM35.34 39.36c-1.112-1.11-1.112-2.91 0-4.022 1.11-1.11 2.91-1.11 4.022 0s1.11 2.912 0 4.023c-1.112 1.112-2.913 1.112-4.023 0z"/></g><path d="M76.07 64L64 76.068l-2.01-2.01 12.068-12.07z" opacity=".08"/><path fill="#1C7ED7" d="M77.326 40.617L40.332 77.612l-.024 10.08 10.08-.024 36.995-36.994-4.023-6.034z"/><path fill="#F9422A" d="M95.384 42.673l3.188-3.188c2.82-2.82 2.6-7.247-.305-10.017-2.826-2.694-7.365-2.426-10.126.335l-2.812 2.813 3.888 5.903 6.168 4.153z"/><path fill="#BDC3C7" d="M87.384 50.674L77.328 40.618l8.045-8.045L95.43 42.63z"/><path opacity=".2" d="M90.4 47.658L80.344 37.602l2.01-2.01 10.057 10.055z"/><path fill="#ECAD76" d="M46.805 86.83c-.195-.03-.347-.182-.377-.377l-.577-3.828c-.028-.195-.18-.348-.376-.377l-3.823-.574c-.194-.03-.347-.182-.376-.377l-.61-4.016-.36.36c-1.72 1.72-3.134 3.723-4.18 5.922l-3.388 6.91-.62 5.414 5.412-.62 6.91-3.39c2.2-1.044 4.202-2.458 5.924-4.18l.358-.358-3.915-.508z"/><path fill="#39546F" d="M37.526 95.266l-4.792-4.792-3.474 7.086c-.348.75.43 1.528 1.18 1.18l7.086-3.474z"/><path fill="#1C7ED7" d="M77.326 40.617L40.332 77.612l-.024 10.08 10.08-.024 36.995-36.994-4.023-6.034z"/><path fill="#F9422A" d="M95.384 42.673l3.188-3.188c2.82-2.82 2.6-7.247-.305-10.017-2.826-2.694-7.365-2.426-10.126.335l-2.812 2.813 3.888 5.903 6.168 4.153z"/><path fill="#BDC3C7" d="M87.384 50.674L77.328 40.618l8.045-8.045L95.43 42.63z"/><path opacity=".08" d="M89.333 48.724L79.277 38.668l1.3-1.3 10.056 10.056zm2.845-2.845L82.122 35.822l1.3-1.3L93.478 44.58zm-45.863-3.415L45.31 41.46l4.11-4.11 1.004 1.006z"/><path opacity=".16" fill="#fff" d="M47.32 43.47l-1.005-1.004 4.11-4.11 1.004 1.006z"/><path opacity=".08" d="M49.712 50.13l-1.005-1.006 6.242-6.242 1.004 1.005z"/><path opacity=".16" fill="#fff" d="M50.72 51.135l-1.006-1.005 6.242-6.242 1.005 1.005z"/><path opacity=".08" d="M57.377 53.528l-1.005-1.005 4.11-4.11 1.004 1.006z"/><path opacity=".16" fill="#fff" d="M58.383 54.533l-1.005-1.005 4.11-4.11 1.004 1.006z"/><path opacity=".08" d="M72.34 72.757l-1.005-1.005 6.242-6.242 1.005 1.005z"/><path opacity=".16" fill="#fff" d="M73.345 73.763l-1.005-1.005 6.242-6.242 1.005 1.005z"/><path opacity=".08" d="M80.005 76.155L79 75.15l4.11-4.11 1.004 1.006z"/><path opacity=".16" fill="#fff" d="M81.01 77.16l-1.005-1.004 4.11-4.11 1.004 1.006z"/><path opacity=".08" d="M83.403 83.82l-1.005-1.005 6.242-6.242 1.005 1.005z"/><path opacity=".16" fill="#fff" d="M84.408 84.826l-1.005-1.005 6.242-6.24 1.005 1.004z"/><path opacity=".08" d="M91.067 87.218l-1.005-1.005 4.11-4.11 1.004 1.006z"/><path opacity=".16" fill="#fff" d="M92.072 88.224l-1.005-1.005 4.11-4.11 1.004 1.005z"/><path fill="#ECAD76" d="M46.805 86.83c-.195-.03-.347-.182-.377-.377l-.577-3.828c-.028-.195-.18-.348-.376-.377l-3.823-.574c-.194-.03-.347-.182-.376-.377l-.61-4.016-.36.36c-1.72 1.72-3.134 3.723-4.18 5.922l-3.388 6.91-.62 5.414 5.412-.62 6.91-3.39c2.2-1.044 4.202-2.458 5.924-4.18l.358-.358-3.915-.508z"/><path fill="#39546F" d="M37.526 95.266l-4.792-4.792-3.474 7.086c-.348.75.43 1.528 1.18 1.18l7.086-3.474z"/><g opacity=".12"><linearGradient id="b" gradientUnits="userSpaceOnUse" x1="78.339" y1="224.671" x2="78.339" y2="127.234" gradientTransform="matrix(.707 .707 -.707 .707 130.332 -118.328)"><stop offset=".8" stop-color="#fff"/><stop offset="1" stop-color="#fff" stop-opacity="0"/></linearGradient><path fill="url(#b)" d="M34.06 92.502l4.686-5.743c1.47-1.816 3.11-3.634 4.854-5.377l.03-.03 48.388-48.388c2.1-2.1 4.356-3.633 5.73-3.944-2.84-2.204-7.01-1.815-9.606.782l-47.81 47.81-.028.028c-1.72 1.72-3.135 3.724-4.18 5.923l-3.39 6.91-3.474 7.087c-.13.282-.102.568.024.796l4.776-5.854z"/></g></svg>